<svg xmlns="http://www.w3.org/2000/svg" xmlns:xlink="http://www.w3.org/1999/xlink" width="1584" zoomAndPan="magnify" viewBox="0 0 1188 296.999993" height="396" preserveAspectRatio="xMidYMid meet" version="1.0"><defs><clipPath id="513356720f"><path d="M 0.0507812 0 L 466.550781 0 L 466.550781 245.996094 L 0.0507812 245.996094 Z M 0.0507812 0 " clip-rule="nonzero"/></clipPath><clipPath id="69f13e52be"><path d="M 0.0507812 0.238281 L 445 0.238281 L 445 245.996094 L 0.0507812 245.996094 Z M 0.0507812 0.238281 " clip-rule="nonzero"/></clipPath><clipPath id="04e6bc23d4"><path d="M 417 181 L 466.550781 181 L 466.550781 227 L 417 227 Z M 417 181 " clip-rule="nonzero"/></clipPath><clipPath id="5795f22178"><rect x="0" width="467" y="0" height="246"/></clipPath><clipPath id="c525718c69"><path d="M 1069.199219 139 L 1187.699219 139 L 1187.699219 297 L 1069.199219 297 Z M 1069.199219 139 " clip-rule="nonzero"/></clipPath><clipPath id="e048f4afbd"><path d="M 0 211 L 84 211 L 84 297 L 0 297 Z M 0 211 " clip-rule="nonzero"/></clipPath><clipPath id="82e87bb82d"><path d="M 1.179688 178.789062 L 104.496094 264.515625 L 28.828125 355.710938 L -74.488281 269.988281 Z M 1.179688 178.789062 " clip-rule="nonzero"/></clipPath><clipPath id="0c2fdf4430"><path d="M 1.179688 178.789062 L 104.496094 264.515625 L 28.828125 355.710938 L -74.488281 269.988281 Z M 1.179688 178.789062 " clip-rule="nonzero"/></clipPath></defs><g clip-path="url(#513356720f)"><g transform="matrix(1, 0, 0, 1, 0, 0)"><g clip-path="url(#5795f22178)"><g clip-path="url(#69f13e52be)"><path fill="#ffffff" d="M 0.00390625 3.117188 C 0.00390625 4.070312 0.550781 4.984375 1.464844 5.40625 L 19.734375 13.816406 C 21 14.394531 22.488281 13.847656 23.078125 12.582031 C 23.667969 11.320312 23.105469 9.828125 21.839844 9.253906 L 3.570312 0.839844 C 2.304688 0.265625 0.816406 0.8125 0.242188 2.078125 C 0.0742188 2.398438 0.00390625 2.765625 0.00390625 3.117188 Z M 36.53125 19.957031 C 36.53125 20.910156 37.078125 21.808594 37.992188 22.246094 L 56.261719 30.65625 C 57.527344 31.234375 59.015625 30.683594 59.59375 29.421875 C 60.167969 28.15625 59.621094 26.667969 58.355469 26.09375 L 40.085938 17.679688 C 38.820312 17.105469 37.332031 17.652344 36.757812 18.917969 C 36.601562 19.238281 36.53125 19.605469 36.53125 19.957031 Z M 73.058594 36.78125 C 73.058594 37.734375 73.609375 38.632812 74.519531 39.070312 L 92.792969 47.480469 C 94.054688 48.058594 95.546875 47.511719 96.136719 46.246094 C 96.710938 44.980469 96.164062 43.492188 94.898438 42.917969 L 76.628906 34.503906 C 75.363281 33.929688 73.875 34.476562 73.300781 35.742188 C 73.128906 36.078125 73.058594 36.429688 73.058594 36.78125 Z M 109.589844 53.621094 C 109.589844 54.574219 110.136719 55.488281 111.050781 55.910156 L 129.308594 64.320312 C 130.570312 64.898438 132.058594 64.347656 132.648438 63.097656 C 133.238281 61.835938 132.675781 60.347656 131.429688 59.769531 L 113.15625 51.34375 C 111.890625 50.769531 110.402344 51.316406 109.828125 52.582031 C 109.660156 52.902344 109.589844 53.269531 109.589844 53.621094 Z M 146.003906 70.695312 C 146.003906 71.625 146.511719 72.507812 147.394531 72.945312 C 153.941406 76.203125 159.710938 79.265625 165.035156 82.324219 C 166.242188 83.015625 167.773438 82.59375 168.460938 81.398438 C 169.148438 80.191406 168.730469 78.660156 167.535156 77.972656 C 162.128906 74.867188 156.273438 71.765625 149.644531 68.464844 C 148.394531 67.847656 146.890625 68.351562 146.273438 69.585938 C 146.089844 69.9375 146.003906 70.332031 146.003906 70.695312 Z M 180.777344 90.863281 C 180.777344 91.652344 181.15625 92.4375 181.847656 92.929688 C 187.546875 96.917969 192.746094 101.0625 197.308594 105.246094 C 198.335938 106.1875 199.921875 106.117188 200.863281 105.089844 C 201.804688 104.066406 201.734375 102.480469 200.707031 101.539062 C 195.988281 97.199219 190.609375 92.914062 184.726562 88.800781 C 183.585938 88 182.015625 88.28125 181.226562 89.417969 C 180.933594 89.867188 180.777344 90.371094 180.777344 90.863281 Z M 210.101562 118.179688 C 210.101562 118.714844 210.273438 119.246094 210.621094 119.695312 C 214.652344 124.992188 218.050781 130.625 220.707031 136.394531 C 221.28125 137.660156 222.785156 138.207031 224.035156 137.632812 C 225.300781 137.054688 225.847656 135.566406 225.269531 134.304688 C 222.460938 128.195312 218.878906 122.253906 214.625 116.664062 C 213.78125 115.554688 212.210938 115.34375 211.101562 116.1875 C 210.441406 116.675781 210.101562 117.421875 210.101562 118.179688 Z M 226.828125 154.386719 C 226.828125 154.582031 226.859375 154.78125 226.898438 154.976562 C 228.234375 160.59375 229.289062 166.421875 230.3125 172.066406 L 230.761719 174.566406 C 231.015625 175.929688 232.320312 176.84375 233.683594 176.589844 C 235.046875 176.335938 235.945312 175.046875 235.707031 173.667969 L 235.257812 171.167969 C 234.230469 165.453125 233.164062 159.539062 231.789062 153.796875 C 231.464844 152.449219 230.117188 151.605469 228.753906 151.929688 C 227.601562 152.222656 226.828125 153.25 226.828125 154.386719 Z M 234.960938 193.765625 C 234.960938 193.992188 234.988281 194.214844 235.058594 194.453125 C 237.039062 201.519531 239.652344 207.964844 242.824219 213.597656 C 243.5 214.804688 245.03125 215.238281 246.253906 214.566406 C 247.460938 213.890625 247.894531 212.347656 247.222656 211.136719 C 244.246094 205.84375 241.785156 199.761719 239.917969 193.09375 C 239.539062 191.757812 238.148438 190.972656 236.816406 191.351562 C 235.691406 191.660156 234.960938 192.671875 234.960938 193.765625 Z M 255.144531 227.851562 C 255.144531 228.582031 255.464844 229.3125 256.070312 229.804688 C 259.300781 232.429688 262.8125 234.523438 266.519531 236.039062 C 269.300781 237.175781 272.261719 238.019531 275.339844 238.539062 C 276.699219 238.777344 278.007812 237.851562 278.246094 236.488281 C 278.46875 235.113281 277.558594 233.820312 276.195312 233.582031 C 273.484375 233.117188 270.871094 232.375 268.441406 231.375 C 265.199219 230.042969 262.109375 228.203125 259.257812 225.898438 C 258.175781 225.027344 256.601562 225.195312 255.71875 226.265625 C 255.324219 226.742188 255.144531 227.304688 255.144531 227.851562 Z M 280.269531 143.992188 C 280.269531 145.1875 280.324219 146.4375 280.4375 147.671875 C 280.5625 149.050781 281.785156 150.074219 283.175781 149.949219 C 284.566406 149.820312 285.578125 148.570312 285.449219 147.210938 C 285.308594 145.722656 285.265625 144.273438 285.324219 142.855469 C 285.476562 138.234375 287.007812 133.542969 289.605469 129.683594 C 290.378906 128.53125 290.070312 126.972656 288.917969 126.199219 C 287.765625 125.425781 286.207031 125.734375 285.4375 126.886719 C 282.316406 131.523438 280.492188 137.140625 280.296875 142.703125 C 280.28125 143.121094 280.269531 143.558594 280.269531 143.992188 Z M 286.066406 166.648438 C 286.066406 166.984375 286.136719 167.335938 286.277344 167.65625 C 287.429688 170.269531 288.679688 172.882812 289.875 175.339844 C 291.574219 178.851562 293.273438 182.390625 295.027344 185.902344 C 295.644531 187.136719 297.164062 187.644531 298.398438 187.023438 C 299.632812 186.40625 300.140625 184.890625 299.523438 183.652344 C 297.78125 180.15625 296.082031 176.644531 294.394531 173.148438 C 293.230469 170.734375 291.996094 168.164062 290.871094 165.621094 C 290.308594 164.359375 288.820312 163.78125 287.558594 164.34375 C 286.628906 164.765625 286.066406 165.691406 286.066406 166.648438 Z M 293.246094 235.40625 C 293.246094 235.574219 293.257812 235.730469 293.285156 235.898438 C 293.554688 237.261719 294.886719 238.144531 296.25 237.878906 C 301.683594 236.796875 307.386719 235.082031 313.707031 232.640625 C 314.4375 232.359375 315.167969 232.0625 315.898438 231.753906 C 317.175781 231.222656 317.78125 229.746094 317.246094 228.46875 C 316.710938 227.191406 315.238281 226.585938 313.960938 227.121094 C 313.273438 227.414062 312.582031 227.683594 311.882812 227.949219 C 305.84375 230.292969 300.40625 231.925781 295.253906 232.949219 C 294.074219 233.1875 293.246094 234.226562 293.246094 235.40625 Z M 301.839844 119.09375 C 301.839844 120.414062 302.878906 121.523438 304.214844 121.605469 C 309.71875 121.917969 314.941406 124.894531 320.714844 128.460938 L 321.402344 128.882812 C 322.582031 129.613281 324.128906 129.261719 324.871094 128.082031 C 325.601562 126.902344 325.238281 125.355469 324.058594 124.625 L 323.371094 124.191406 C 317.230469 120.398438 311.179688 116.972656 304.507812 116.59375 C 303.117188 116.507812 301.9375 117.578125 301.855469 118.96875 C 301.839844 118.996094 301.839844 119.050781 301.839844 119.09375 Z M 304.394531 202.445312 C 304.394531 202.894531 304.507812 203.34375 304.761719 203.75 C 308.652344 210.140625 312.570312 215.589844 316.726562 220.394531 C 317.640625 221.445312 319.226562 221.558594 320.265625 220.648438 C 321.320312 219.734375 321.429688 218.160156 320.519531 217.09375 C 316.542969 212.5 312.78125 207.277344 309.03125 201.125 C 308.300781 199.945312 306.753906 199.566406 305.574219 200.28125 C 304.816406 200.761719 304.394531 201.589844 304.394531 202.445312 Z M 330.125 219.957031 C 330.125 220.4375 330.265625 220.925781 330.546875 221.363281 C 331.316406 222.515625 332.878906 222.824219 334.027344 222.050781 C 340.066406 218.007812 345.375 213.511719 349.800781 208.695312 C 350.742188 207.667969 350.671875 206.082031 349.644531 205.140625 C 348.621094 204.199219 347.035156 204.269531 346.09375 205.296875 C 341.9375 209.820312 336.9375 214.058594 331.234375 217.878906 C 330.519531 218.355469 330.125 219.144531 330.125 219.957031 Z M 330.96875 232.234375 C 330.96875 233.035156 331.347656 233.820312 332.046875 234.296875 C 338.015625 238.414062 344.296875 241.488281 350.726562 243.453125 C 352.0625 243.863281 353.464844 243.117188 353.859375 241.78125 C 354.265625 240.460938 353.523438 239.058594 352.1875 238.652344 C 346.246094 236.839844 340.433594 233.988281 334.898438 230.167969 C 333.761719 229.382812 332.1875 229.664062 331.402344 230.816406 C 331.109375 231.234375 330.96875 231.742188 330.96875 232.234375 Z M 336.851562 138.039062 C 336.851562 138.78125 337.1875 139.527344 337.820312 140.019531 C 343.691406 144.582031 348.183594 149.050781 351.554688 153.640625 C 352.371094 154.765625 353.945312 155.003906 355.066406 154.191406 C 356.191406 153.375 356.429688 151.800781 355.613281 150.679688 C 351.964844 145.691406 347.160156 140.902344 340.910156 136.042969 C 339.816406 135.1875 338.226562 135.382812 337.386719 136.480469 C 337.019531 136.941406 336.851562 137.492188 336.851562 138.039062 Z M 356.332031 190.199219 C 356.332031 191.195312 356.933594 192.136719 357.917969 192.53125 C 359.210938 193.050781 360.671875 192.417969 361.191406 191.125 C 363.941406 184.214844 364.828125 177.125 363.816406 170.128906 C 363.621094 168.753906 362.339844 167.796875 360.964844 168.007812 C 359.589844 168.207031 358.632812 169.46875 358.84375 170.859375 C 359.730469 176.984375 358.941406 183.191406 356.511719 189.285156 C 356.386719 189.582031 356.332031 189.890625 356.332031 190.199219 Z M 368.816406 243.089844 C 368.816406 243.1875 368.816406 243.273438 368.832031 243.371094 C 368.984375 244.746094 370.21875 245.742188 371.597656 245.589844 C 373.519531 245.378906 375.445312 245.042969 377.296875 244.59375 C 381.890625 243.480469 386.527344 241.628906 391.457031 238.917969 C 392.675781 238.242188 393.113281 236.726562 392.453125 235.503906 C 391.777344 234.285156 390.261719 233.847656 389.039062 234.507812 C 384.503906 236.992188 380.277344 238.691406 376.117188 239.691406 C 374.460938 240.097656 372.75 240.394531 371.035156 240.574219 C 369.769531 240.742188 368.816406 241.824219 368.816406 243.089844 Z M 404.460938 225.546875 C 404.460938 226.066406 404.613281 226.585938 404.953125 227.035156 C 405.78125 228.160156 407.351562 228.398438 408.460938 227.570312 L 424.667969 215.660156 C 425.792969 214.847656 426.03125 213.257812 425.203125 212.148438 C 424.375 211.027344 422.800781 210.789062 421.691406 211.617188 L 405.484375 223.527344 C 404.8125 224.015625 404.460938 224.777344 404.460938 225.546875 Z M 436.859375 201.730469 C 436.859375 202.25 437.015625 202.769531 437.351562 203.21875 C 438.179688 204.339844 439.753906 204.578125 440.863281 203.75 L 443.574219 201.769531 C 444.695312 200.957031 444.933594 199.371094 444.105469 198.261719 C 443.277344 197.136719 441.707031 196.898438 440.597656 197.726562 L 437.886719 199.707031 C 437.226562 200.199219 436.859375 200.957031 436.859375 201.730469 Z M 436.859375 201.730469 " fill-opacity="1" fill-rule="nonzero"/></g><g clip-path="url(#04e6bc23d4)"><path fill="#ffffff" d="M 466.535156 181.773438 C 451.886719 185.957031 432.269531 189.171875 417.746094 187.953125 L 438.882812 202.09375 L 446.074219 226.476562 C 449.246094 212.277344 458.164062 194.496094 466.535156 181.773438 Z M 466.535156 181.773438 " fill-opacity="1" fill-rule="nonzero"/></g></g></g></g><g clip-path="url(#c525718c69)"><path fill="#ffffff" d="M 1187.992188 139.078125 L 1187.992188 309.039062 L 1069.246094 309.039062 C 1069.191406 307.527344 1069.21875 306.011719 1069.328125 304.5 C 1070.238281 291.828125 1076.964844 279.6875 1087.230469 272.199219 C 1094.535156 266.871094 1103.265625 263.9375 1111.3125 259.820312 C 1119.359375 255.703125 1127.203125 249.808594 1130.167969 241.265625 C 1132.601562 234.246094 1131.382812 226.574219 1131.144531 219.148438 C 1130.492188 198.636719 1137.957031 177.976562 1151.578125 162.625 C 1161.289062 151.675781 1174.054688 143.511719 1187.992188 139.078125 Z M 1187.992188 139.078125 " fill-opacity="1" fill-rule="nonzero"/></g><g clip-path="url(#e048f4afbd)"><g clip-path="url(#82e87bb82d)"><g clip-path="url(#0c2fdf4430)"><path fill="#ffffff" d="M 60.476562 315.902344 C 62.367188 313.1875 64.164062 310.398438 65.925781 307.644531 C 72.851562 296.800781 79.914062 285.636719 82.4375 273.019531 C 84.964844 260.402344 81.976562 245.828125 71.78125 237.976562 C 61.65625 230.179688 47.519531 230.808594 35.5625 226.300781 C 27.527344 223.269531 20.539062 217.925781 12.605469 214.648438 C 0.078125 209.480469 -15.113281 210.046875 -26.28125 217.734375 C -37.445312 225.417969 -43.445312 240.605469 -38.917969 253.382812 C -34.632812 265.488281 -22.855469 272.9375 -13.4375 281.664062 C 3.136719 297.023438 -6.375 326.882812 15.578125 336.289062 C 23.390625 339.636719 32.632812 338.875 40.269531 335.148438 C 48.746094 331.007812 55.011719 323.753906 60.476562 315.902344 Z M 60.476562 315.902344 " fill-opacity="1" fill-rule="nonzero"/></g></g></g></svg>